<svg xmlns="http://www.w3.org/2000/svg" xml:space="preserve" viewBox="50 16 24 70"><path d="M58.612 16.752c-.884 0-1.738.242-2.5.704a4.8 4.8 0 0 0-2.499-.704 4.89 4.89 0 0 0-4.883 4.883c0 .943.272 1.844.791 2.635a4.77 4.77 0 0 0-.791 2.635c0 1.566.754 2.947 1.904 3.841-.914 2.26-1.585 4.857-1.978 7.75a47 47 0 0 0-.428 5.082c-2.251.05-7.611.379-8.057 2.332l-.009.015c-.036.104-.85 2.61 1.631 7.011 1.287 2.282.602 4.038-.827 7.197-.291.644-.798 1.428-1.336 2.259-2.054 3.174-4.867 7.52-1.708 12.435 3.028 4.711 3.489 6.799 3.492 6.815a.75.75 0 0 0 .524.576 24.7 24.7 0 0 0 7.019 1.03 24.7 24.7 0 0 0 7.02-1.03.76.76 0 0 0 .523-.571c.004-.021.464-2.109 3.493-6.82 3.16-4.915.346-9.261-1.708-12.435-.538-.831-1.046-1.615-1.336-2.259-1.428-3.16-2.113-4.915-.827-7.197 2.481-4.401 1.667-6.907 1.631-7.011l-.009-.015c-.443-1.94-5.737-2.279-8.015-2.332.039-1.264.146-2.979.411-4.878.367-2.699.985-5.114 1.817-7.22a4.8 4.8 0 0 0 1.654.308c.98 0 1.94-.307 2.756-.872a4.9 4.9 0 0 0 2.243.545 4.89 4.89 0 0 0 4.883-4.883c0-.873-.236-1.718-.687-2.472a4.8 4.8 0 0 0 .687-2.472 4.885 4.885 0 0 0-4.881-4.882M54.817 52.2c-1.72 3.05-.568 5.6.766 8.552.337.746.875 1.577 1.444 2.456 1.934 2.988 4.341 6.707 1.705 10.808-2.435 3.788-3.293 5.987-3.576 6.877a22.9 22.9 0 0 1-12.396 0c-.282-.89-1.141-3.089-3.576-6.877-2.636-4.101-.229-7.82 1.705-10.808.569-.879 1.107-1.71 1.444-2.456 1.334-2.952 2.486-5.501.766-8.552-1.126-1.998-1.481-3.503-1.569-4.48 2.21.977 6.358 1.048 7.427 1.048s5.217-.071 7.427-1.048c-.086.978-.441 2.483-1.567 4.48m-5.858-4.932c-4.08 0-6.546-.663-7.214-1.1.625-.408 2.843-1.008 6.465-1.084.003.43.013.69.014.725a.75.75 0 0 0 .749.718l.032-.001a.75.75 0 0 0 .718-.78c0-.008-.009-.249-.012-.662 3.62.077 5.838.676 6.463 1.084-.668.437-3.135 1.1-7.215 1.1m12.348-22.71c.451.599.688 1.298.688 2.021a3.387 3.387 0 0 1-3.383 3.383 3.37 3.37 0 0 1-1.882-.573.75.75 0 0 0-.91.057 3.33 3.33 0 0 1-2.207.842 3.387 3.387 0 0 1-3.383-3.383c0-.784.276-1.528.799-2.154a.75.75 0 0 0 0-.962 3.33 3.33 0 0 1-.799-2.154 3.387 3.387 0 0 1 3.383-3.383c.732 0 1.439.245 2.043.707a.75.75 0 0 0 .912 0 3.35 3.35 0 0 1 2.043-.707 3.387 3.387 0 0 1 3.383 3.383c0 .724-.238 1.422-.688 2.021-.2.267-.2.635.001.902m-5.194-3.111c-1.557 0-2.823 1.266-2.823 2.823s1.266 2.823 2.823 2.823 2.823-1.266 2.823-2.823-1.266-2.823-2.823-2.823m0 4.146a1.324 1.324 0 1 1 1.323-1.323c0 .73-.594 1.323-1.323 1.323"/></svg>